{
  "accessors": [
    {
      "name": "Steve_LArm-Mesh_0_positions",
      "componentType": 5126,
      "count": 24,
      "min": [
        -0.5609130263328552,
        3.491194009780884,
        -2.23752498626709
      ],
      "max": [
        0.5301399827003479,
        6.501760959625244,
        -1.0807139873504639
      ],
      "type": "VEC3",
      "bufferView": 0,
      "byteOffset": 0
    },
    {
      "name": "Steve_LArm-Mesh_0_normals",
      "componentType": 5126,
      "count": 24,
      "min": [
        -0.590309202671051,
        -0.5860410332679749,
        -0.5853093862533569
      ],
      "max": [
        0.590309202671051,
        0.5860410332679749,
        0.5853093862533569
      ],
      "type": "VEC3",
      "bufferView": 1,
      "byteOffset": 0
    },
    {
      "name": "Steve_LArm-Mesh_0_texcoords",
      "componentType": 5126,
      "count": 24,
      "min": [
        0.6876000165939331,
        0.5012040138244629
      ],
      "max": [
        0.8142459988594055,
        1.0021469593048096
      ],
      "type": "VEC2",
      "bufferView": 2,
      "byteOffset": 0
    },
    {
      "name": "Steve_LArm-Mesh_0_indices",
      "componentType": 5123,
      "count": 36,
      "min": [
        0
      ],
      "max": [
        23
      ],
      "type": "SCALAR",
      "bufferView": 3,
      "byteOffset": 0
    },
    {
      "name": "Steve_Head-Mesh_0_positions",
      "componentType": 5126,
      "count": 34,
      "min": [
        -1,
        6.474077224731445,
        -1.006572961807251
      ],
      "max": [
        1,
        8.487224578857422,
        1.006572961807251
      ],
      "type": "VEC3",
      "bufferView": 0,
      "byteOffset": 288
    },
    {
      "name": "Steve_Head-Mesh_0_normals",
      "componentType": 5126,
      "count": 34,
      "min": [
        -0.5773419141769409,
        -0.5735416412353516,
        -0.5811421871185303
      ],
      "max": [
        0.5773419141769409,
        0.5811421871185303,
        0.9999975562095642
      ],
      "type": "VEC3",
      "bufferView": 1,
      "byteOffset": 288
    },
    {
      "name": "Steve_Head-Mesh_0_texcoords",
      "componentType": 5126,
      "count": 34,
      "min": [
        0.0013259999686852098,
        0
      ],
      "max": [
        1,
        1
      ],
      "type": "VEC2",
      "bufferView": 2,
      "byteOffset": 192
    },
    {
      "name": "Steve_Head-Mesh_0_indices",
      "componentType": 5123,
      "count": 36,
      "min": [
        0
      ],
      "max": [
        33
      ],
      "type": "SCALAR",
      "bufferView": 3,
      "byteOffset": 72
    },
    {
      "name": "Steve_RLeg-Mesh_0_positions",
      "componentType": 5126,
      "count": 24,
      "min": [
        -0.5215929746627808,
        0.5026460289955139,
        0.000450999999884516
      ],
      "max": [
        0.5215929746627808,
        3.497354030609131,
        1.1366989612579346
      ],
      "type": "VEC3",
      "bufferView": 0,
      "byteOffset": 696
    },
    {
      "name": "Steve_RLeg-Mesh_0_normals",
      "componentType": 5126,
      "count": 24,
      "min": [
        -0.5773502588272095,
        -0.5773502588272095,
        -0.5773502588272095
      ],
      "max": [
        0.5773502588272095,
        0.5773502588272095,
        0.5773502588272095
      ],
      "type": "VEC3",
      "bufferView": 1,
      "byteOffset": 696
    },
    {
      "name": "Steve_RLeg-Mesh_0_texcoords",
      "componentType": 5126,
      "count": 24,
      "min": [
        0.0008069999748840928,
        0.502672016620636
      ],
      "max": [
        0.2502110004425049,
        1.0013140439987183
      ],
      "type": "VEC2",
      "bufferView": 2,
      "byteOffset": 464
    },
    {
      "name": "Steve_RLeg-Mesh_0_indices",
      "componentType": 5123,
      "count": 36,
      "min": [
        0
      ],
      "max": [
        23
      ],
      "type": "SCALAR",
      "bufferView": 3,
      "byteOffset": 144
    },
    {
      "name": "Steve_LLeg-Mesh_0_positions",
      "componentType": 5126,
      "count": 24,
      "min": [
        -0.5215929746627808,
        0.5026460289955139,
        -1.1388880014419556
      ],
      "max": [
        0.5215929746627808,
        3.497354030609131,
        -0.0026390000712126493
      ],
      "type": "VEC3",
      "bufferView": 0,
      "byteOffset": 984
    },
    {
      "name": "Steve_LLeg-Mesh_0_normals",
      "componentType": 5126,
      "count": 24,
      "min": [
        -0.5773502588272095,
        -0.5773502588272095,
        -0.5773502588272095
      ],
      "max": [
        0.5773502588272095,
        0.5773502588272095,
        0.5773502588272095
      ],
      "type": "VEC3",
      "bufferView": 1,
      "byteOffset": 984
    },
    {
      "name": "Steve_LLeg-Mesh_0_texcoords",
      "componentType": 5126,
      "count": 24,
      "min": [
        -0.003674000035971403,
        0.5039129853248596
      ],
      "max": [
        0.2502110004425049,
        1.0025279521942139
      ],
      "type": "VEC2",
      "bufferView": 2,
      "byteOffset": 656
    },
    {
      "name": "Steve_LLeg-Mesh_0_indices",
      "componentType": 5123,
      "count": 36,
      "min": [
        0
      ],
      "max": [
        23
      ],
      "type": "SCALAR",
      "bufferView": 3,
      "byteOffset": 216
    },
    {
      "name": "Steve_Body-Mesh_0_positions",
      "componentType": 5126,
      "count": 24,
      "min": [
        -0.5215929746627808,
        3.491547107696533,
        -1.1316109895706177
      ],
      "max": [
        0.5215929746627808,
        6.486256122589111,
        1.16382896900177
      ],
      "type": "VEC3",
      "bufferView": 0,
      "byteOffset": 1272
    },
    {
      "name": "Steve_Body-Mesh_0_normals",
      "componentType": 5126,
      "count": 24,
      "min": [
        -0.5773502588272095,
        -0.5773502588272095,
        -0.5773502588272095
      ],
      "max": [
        0.5773502588272095,
        0.5773502588272095,
        0.5773502588272095
      ],
      "type": "VEC3",
      "bufferView": 1,
      "byteOffset": 1272
    },
    {
      "name": "Steve_Body-Mesh_0_texcoords",
      "componentType": 5126,
      "count": 24,
      "min": [
        0.127578005194664,
        0.49893099069595337
      ],
      "max": [
        0.6255009770393372,
        1.0051720142364502
      ],
      "type": "VEC2",
      "bufferView": 2,
      "byteOffset": 848
    },
    {
      "name": "Steve_Body-Mesh_0_indices",
      "componentType": 5123,
      "count": 36,
      "min": [
        0
      ],
      "max": [
        23
      ],
      "type": "SCALAR",
      "bufferView": 3,
      "byteOffset": 288
    },
    {
      "name": "Steve_RArm-Mesh_0_positions",
      "componentType": 5126,
      "count": 24,
      "min": [
        -0.5609130263328552,
        3.452591896057129,
        1.0807139873504639
      ],
      "max": [
        0.5301399827003479,
        6.463160037994385,
        2.23752498626709
      ],
      "type": "VEC3",
      "bufferView": 0,
      "byteOffset": 1560
    },
    {
      "name": "Steve_RArm-Mesh_0_normals",
      "componentType": 5126,
      "count": 24,
      "min": [
        -0.590309202671051,
        -0.5860410332679749,
        -0.5853093862533569
      ],
      "max": [
        0.590309202671051,
        0.5860410332679749,
        0.5853093862533569
      ],
      "type": "VEC3",
      "bufferView": 1,
      "byteOffset": 1560
    },
    {
      "name": "Steve_RArm-Mesh_0_texcoords",
      "componentType": 5126,
      "count": 24,
      "min": [
        0.6862819790840149,
        0.4992609918117523
      ],
      "max": [
        0.8112710118293762,
        0.9980250000953674
      ],
      "type": "VEC2",
      "bufferView": 2,
      "byteOffset": 1040
    },
    {
      "name": "Steve_RArm-Mesh_0_indices",
      "componentType": 5123,
      "count": 36,
      "min": [
        0
      ],
      "max": [
        23
      ],
      "type": "SCALAR",
      "bufferView": 3,
      "byteOffset": 360
    }
  ],
  "asset": {
    "generator": "obj2gltf",
    "version": "2.0"
  },
  "buffers": [
    {
      "name": "steve",
      "byteLength": 17848,
      "uri": "data:application/octet-stream;base64,"
    }
  ],
  "bufferViews": [
    {
      "name": "bufferView_0",
      "buffer": 0,
      "byteLength": 1848,
      "byteOffset": 0,
      "byteStride": 12,
      "target": 34962
    },
    {
      "name": "bufferView_1",
      "buffer": 0,
      "byteLength": 1848,
      "byteOffset": 1848,
      "byteStride": 12,
      "target": 34962
    },
    {
      "name": "bufferView_2",
      "buffer": 0,
      "byteLength": 1232,
      "byteOffset": 3696,
      "byteStride": 8,
      "target": 34962
    },
    {
      "name": "bufferView_3",
      "buffer": 0,
      "byteLength": 432,
      "byteOffset": 4928,
      "target": 34963
    },
    {
      "buffer": 0,
      "byteOffset": 5360,
      "byteLength": 12485
    }
  ],
  "images": [
    {
      "name": "Steve",
      "mimeType": "image/png",
      "bufferView": 4
    }
  ],
  "materials": [
    {
      "name": "Steve",
      "pbrMetallicRoughness": {
        "baseColorTexture": {
          "index": 0
        },
        "baseColorFactor": [
          1,
          1,
          1,
          1
        ],
        "metallicFactor": 0,
        "roughnessFactor": 0.8587254905499999
      },
      "emissiveFactor": [
        0,
        0,
        0
      ],
      "alphaMode": "OPAQUE",
      "doubleSided": false
    }
  ],
  "meshes": [
    {
      "name": "Steve_LArm-Mesh",
      "primitives": [
        {
          "attributes": {
            "POSITION": 0,
            "NORMAL": 1,
            "TEXCOORD_0": 2
          },
          "indices": 3,
          "material": 0,
          "mode": 4
        }
      ]
    },
    {
      "name": "Steve_Head-Mesh",
      "primitives": [
        {
          "attributes": {
            "POSITION": 4,
            "NORMAL": 5,
            "TEXCOORD_0": 6
          },
          "indices": 7,
          "material": 0,
          "mode": 4
        }
      ]
    },
    {
      "name": "Steve_RLeg-Mesh",
      "primitives": [
        {
          "attributes": {
            "POSITION": 8,
            "NORMAL": 9,
            "TEXCOORD_0": 10
          },
          "indices": 11,
          "material": 0,
          "mode": 4
        }
      ]
    },
    {
      "name": "Steve_LLeg-Mesh",
      "primitives": [
        {
          "attributes": {
            "POSITION": 12,
            "NORMAL": 13,
            "TEXCOORD_0": 14
          },
          "indices": 15,
          "material": 0,
          "mode": 4
        }
      ]
    },
    {
      "name": "Steve_Body-Mesh",
      "primitives": [
        {
          "attributes": {
            "POSITION": 16,
            "NORMAL": 17,
            "TEXCOORD_0": 18
          },
          "indices": 19,
          "material": 0,
          "mode": 4
        }
      ]
    },
    {
      "name": "Steve_RArm-Mesh",
      "primitives": [
        {
          "attributes": {
            "POSITION": 20,
            "NORMAL": 21,
            "TEXCOORD_0": 22
          },
          "indices": 23,
          "material": 0,
          "mode": 4
        }
      ]
    }
  ],
  "nodes": [
    {
      "name": "Steve_LArm",
      "mesh": 0
    },
    {
      "name": "Steve_Head",
      "mesh": 1
    },
    {
      "name": "Steve_RLeg",
      "mesh": 2
    },
    {
      "name": "Steve_LLeg",
      "mesh": 3
    },
    {
      "name": "Steve_Body",
      "mesh": 4
    },
    {
      "name": "Steve_RArm",
      "mesh": 5
    }
  ],
  "samplers": [
    {
      "wrapS": 10497,
      "wrapT": 10497
    }
  ],
  "scene": 0,
  "scenes": [
    {
      "nodes": [
        0,
        1,
        2,
        3,
        4,
        5
      ]
    }
  ],
  "textures": [
    {
      "name": "Steve",
      "sampler": 0,
      "source": 0
    }
  ]
}
